<?xml version="1.0" encoding="UTF-8"?>
<svg width="512" height="512" version="1.1" viewBox="0 0 512 512" xmlns="http://www.w3.org/2000/svg">
 <rect x="128" y="128" width="256" height="256" fill="#00ffcc"/>
 <path d="m256 64c-106.04 0-192 85.96-192 192s85.96 192 192 192 192-85.96 192-192-85.96-192-192-192zm0 64c70.692 0 128 57.308 128 128s-57.308 128-128 128-128-57.308-128-128 57.308-128 128-128z" fill="#000000"/>
 <path d="m256 160c-52.935 0-96 43.065-96 96s43.065 96 96 96 96-43.065 96-96-43.065-96-96-96zm0 64c17.645 0 32 14.355 32 32s-14.355 32-32 32-32-14.355-32-32 14.355-32 32-32z" fill="#000000"/>
</svg>
